<?xml version='1.0' encoding='UTF-8'?>
<mxfile version="1.0" encoding="UTF-8"><diagram name="ArchiMate Model" id="archimate_diagram"><mxGraphModel dx="1050" dy="522" grid="1" gridSize="10"><root><mxCell id="0" /><mxCell id="1" parent="0" /><mxCell id="label_Motivation" value="Motivation" style="text;html=1;align=center;verticalAlign=middle;resizable=0;points=[];" vertex="1" parent="1"><mxGeometry x="166.0" y="-372.0" width="200" height="30" as="geometry" /></mxCell><mxCell id="elem_mot1" value="Employee" style="html=1;outlineConnect=0;whiteSpace=wrap;fillColor=#CCCCFF;shape=mxgraph.archimate3.application;appType=role;archiType=oct;" vertex="1" parent="1"><mxGeometry x="140.0" y="-292.0" width="120" height="60" as="geometry" /></mxCell><mxCell id="elem_mot2" value="Manager" style="html=1;outlineConnect=0;whiteSpace=wrap;fillColor=#CCCCFF;shape=mxgraph.archimate3.application;appType=role;archiType=oct;" vertex="1" parent="1"><mxGeometry x="266.0" y="-292.0" width="120" height="60" as="geometry" /></mxCell><mxCell id="elem_mot3" value="Improve Workforce Satisfaction" style="html=1;outlineConnect=0;whiteSpace=wrap;fillColor=#CCCCFF;shape=mxgraph.archimate3.application;appType=goal;archiType=oct;" vertex="1" parent="1"><mxGeometry x="140.0" y="-184.0" width="120" height="60" as="geometry" /></mxCell><mxCell id="elem_mot4" value="Reduce Turnover" style="html=1;outlineConnect=0;whiteSpace=wrap;fillColor=#CCCCFF;shape=mxgraph.archimate3.application;appType=goal;archiType=oct;" vertex="1" parent="1"><mxGeometry x="392.0" y="-184.0" width="120" height="60" as="geometry" /></mxCell><mxCell id="elem_mot5" value="Increase Productivity" style="html=1;outlineConnect=0;whiteSpace=wrap;fillColor=#CCCCFF;shape=mxgraph.archimate3.application;appType=goal;archiType=oct;" vertex="1" parent="1"><mxGeometry x="266.0" y="-184.0" width="120" height="60" as="geometry" /></mxCell><mxCell id="elem_mot6" value="Unified Digital Workspace" style="html=1;outlineConnect=0;whiteSpace=wrap;fillColor=#CCCCFF;shape=mxgraph.archimate3.application;appType=requirement;archiType=oct;" vertex="1" parent="1"><mxGeometry x="266.0" y="-76.0" width="120" height="60" as="geometry" /></mxCell><mxCell id="elem_mot7" value="Personalized Dashboards" style="html=1;outlineConnect=0;whiteSpace=wrap;fillColor=#CCCCFF;shape=mxgraph.archimate3.application;appType=requirement;archiType=oct;" vertex="1" parent="1"><mxGeometry x="77.0" y="32.0" width="120" height="60" as="geometry" /></mxCell><mxCell id="elem_mot8" value="AI-powered Analytics" style="html=1;outlineConnect=0;whiteSpace=wrap;fillColor=#CCCCFF;shape=mxgraph.archimate3.application;appType=requirement;archiType=oct;" vertex="1" parent="1"><mxGeometry x="203.0" y="32.0" width="120" height="60" as="geometry" /></mxCell><mxCell id="elem_mot9" value="Multilingual Support" style="html=1;outlineConnect=0;whiteSpace=wrap;fillColor=#CCCCFF;shape=mxgraph.archimate3.application;appType=requirement;archiType=oct;" vertex="1" parent="1"><mxGeometry x="329.0" y="32.0" width="120" height="60" as="geometry" /></mxCell><mxCell id="elem_mot10" value="Virtual Meeting Rooms" style="html=1;outlineConnect=0;whiteSpace=wrap;fillColor=#CCCCFF;shape=mxgraph.archimate3.application;appType=requirement;archiType=oct;" vertex="1" parent="1"><mxGeometry x="455.0" y="32.0" width="120" height="60" as="geometry" /></mxCell><mxCell id="conn_elem_mot1_elem_mot3" style="html=1;shape=mxgraph.archimate3.relationship;archiType=influence;" edge="1" source="elem_mot1" target="elem_mot3" parent="1"><mxGeometry relative="1" as="geometry" /></mxCell><mxCell id="conn_elem_mot2_elem_mot5" style="html=1;shape=mxgraph.archimate3.relationship;archiType=influence;" edge="1" source="elem_mot2" target="elem_mot5" parent="1"><mxGeometry relative="1" as="geometry" /></mxCell><mxCell id="conn_elem_mot3_elem_mot6" style="html=1;shape=mxgraph.archimate3.relationship;archiType=association;" edge="1" source="elem_mot3" target="elem_mot6" parent="1"><mxGeometry relative="1" as="geometry" /></mxCell><mxCell id="conn_elem_mot4_elem_mot6" style="html=1;shape=mxgraph.archimate3.relationship;archiType=association;" edge="1" source="elem_mot4" target="elem_mot6" parent="1"><mxGeometry relative="1" as="geometry" /></mxCell><mxCell id="conn_elem_mot5_elem_mot6" style="html=1;shape=mxgraph.archimate3.relationship;archiType=association;" edge="1" source="elem_mot5" target="elem_mot6" parent="1"><mxGeometry relative="1" as="geometry" /></mxCell><mxCell id="conn_elem_mot6_elem_mot7" style="html=1;shape=mxgraph.archimate3.relationship;archiType=association;" edge="1" source="elem_mot6" target="elem_mot7" parent="1"><mxGeometry relative="1" as="geometry" /></mxCell><mxCell id="conn_elem_mot6_elem_mot8" style="html=1;shape=mxgraph.archimate3.relationship;archiType=association;" edge="1" source="elem_mot6" target="elem_mot8" parent="1"><mxGeometry relative="1" as="geometry" /></mxCell><mxCell id="conn_elem_mot6_elem_mot9" style="html=1;shape=mxgraph.archimate3.relationship;archiType=association;" edge="1" source="elem_mot6" target="elem_mot9" parent="1"><mxGeometry relative="1" as="geometry" /></mxCell><mxCell id="conn_elem_mot6_elem_mot10" style="html=1;shape=mxgraph.archimate3.relationship;archiType=association;" edge="1" source="elem_mot6" target="elem_mot10" parent="1"><mxGeometry relative="1" as="geometry" /></mxCell><mxCell id="label_Application" value="Application" style="text;html=1;align=center;verticalAlign=middle;resizable=0;points=[];" vertex="1" parent="1"><mxGeometry x="103.0" y="156.0" width="200" height="30" as="geometry" /></mxCell><mxCell id="elem_app1" value="Employee Experience Platform" style="html=1;outlineConnect=0;whiteSpace=wrap;fillColor=#99ffff;shape=mxgraph.archimate3.application;appType=comp;archiType=square;" vertex="1" parent="1"><mxGeometry x="203.0" y="236.0" width="120" height="60" as="geometry" /></mxCell><mxCell id="elem_app2" value="Dashboard Service" style="html=1;outlineConnect=0;whiteSpace=wrap;fillColor=#99ffff;shape=mxgraph.archimate3.application;appType=serv;archiType=rounded;" vertex="1" parent="1"><mxGeometry x="77.0" y="344.0" width="120" height="60" as="geometry" /></mxCell><mxCell id="elem_app3" value="Analytics Service" style="html=1;outlineConnect=0;whiteSpace=wrap;fillColor=#99ffff;shape=mxgraph.archimate3.application;appType=serv;archiType=rounded;" vertex="1" parent="1"><mxGeometry x="203.0" y="344.0" width="120" height="60" as="geometry" /></mxCell><mxCell id="elem_app4" value="Collaboration Tools" style="html=1;outlineConnect=0;whiteSpace=wrap;fillColor=#99ffff;shape=mxgraph.archimate3.application;appType=serv;archiType=rounded;" vertex="1" parent="1"><mxGeometry x="329.0" y="344.0" width="120" height="60" as="geometry" /></mxCell><mxCell id="elem_app5" value="User Data" style="html=1;outlineConnect=0;whiteSpace=wrap;fillColor=#99ffff;shape=mxgraph.archimate3.application;appType=passive;archiType=square;" vertex="1" parent="1"><mxGeometry x="77.0" y="452.0" width="120" height="60" as="geometry" /></mxCell><mxCell id="elem_app6" value="Engagement Metrics" style="html=1;outlineConnect=0;whiteSpace=wrap;fillColor=#99ffff;shape=mxgraph.archimate3.application;appType=passive;archiType=square;" vertex="1" parent="1"><mxGeometry x="203.0" y="452.0" width="120" height="60" as="geometry" /></mxCell><mxCell id="conn_elem_app1_elem_app2" style="html=1;shape=mxgraph.archimate3.relationship;archiType=association;" edge="1" source="elem_app1" target="elem_app2" parent="1"><mxGeometry relative="1" as="geometry" /></mxCell><mxCell id="conn_elem_app1_elem_app3" style="html=1;shape=mxgraph.archimate3.relationship;archiType=association;" edge="1" source="elem_app1" target="elem_app3" parent="1"><mxGeometry relative="1" as="geometry" /></mxCell><mxCell id="conn_elem_app1_elem_app4" style="html=1;shape=mxgraph.archimate3.relationship;archiType=association;" edge="1" source="elem_app1" target="elem_app4" parent="1"><mxGeometry relative="1" as="geometry" /></mxCell><mxCell id="conn_elem_app2_elem_app5" style="html=1;shape=mxgraph.archimate3.relationship;archiType=access;" edge="1" source="elem_app2" target="elem_app5" parent="1"><mxGeometry relative="1" as="geometry" /></mxCell><mxCell id="conn_elem_app3_elem_app6" style="html=1;shape=mxgraph.archimate3.relationship;archiType=access;" edge="1" source="elem_app3" target="elem_app6" parent="1"><mxGeometry relative="1" as="geometry" /></mxCell></root></mxGraphModel></diagram></mxfile>